<svg width="436" height="238" viewBox="0 0 436 238" fill="none" xmlns="http://www.w3.org/2000/svg">
<path d="M88.1656 57.2593C92.2062 61.4441 92.5649 65.8595 90.8513 70.8957C84.76 88.7975 68.5086 101.752 50.6373 102.725C30.6935 103.811 13.5892 94.21 5.5512 77.4162C-3.06876 59.4065 -0.334023 39.2636 13.0778 24.9679C21.9075 15.5562 33.0869 10.7104 45.9674 10.3788C57.2824 10.0875 68.6115 10.2396 79.933 10.3442C87.3519 10.4128 92.1319 14.7412 92.3149 21.2195C92.4917 27.4784 87.6755 32.1268 80.0854 32.3042C69.4347 32.553 58.7742 32.3755 48.1179 32.3888C34.7014 32.4055 24.6629 40.4782 22.5687 52.9243C20.6067 64.5851 28.117 76.1208 40.3175 80.1862C50.7193 83.6523 63.3601 78.1106 68.5315 67.7771C69.2745 66.2922 69.8775 64.7307 70.4574 63.1719C73.5624 54.8259 80.0772 52.5119 88.1656 57.2593Z" fill="#F15A2B"/>
<path d="M257.451 149.927C271.968 161.979 273.626 187.444 261.06 200.999C252.541 210.187 238.033 211.862 227.749 204.836C226.66 204.093 225.607 203.299 224.537 202.529C222.774 203.659 223.489 205.309 223.477 206.66C223.403 215.492 223.36 224.327 223.468 233.158C223.507 236.343 222.257 237.496 219.073 237.68C203.702 238.57 203.715 238.643 203.715 223.624C203.716 199.791 203.816 175.957 203.597 152.127C203.555 147.469 204.57 145.229 209.63 145.957C212.08 146.309 214.644 146.241 217.116 145.979C221.529 145.512 224.472 146.403 223.209 152.682C234.355 143.298 245.509 142.435 257.451 149.927ZM230.971 190.363C238.451 192.481 243.417 191.017 246.774 185.706C250.139 180.381 249.695 171.494 245.831 166.871C240.525 160.521 229.823 161.32 225.687 168.387C221.509 175.525 223.405 186.897 230.971 190.363Z" fill="#19315C"/>
<path d="M340.345 199.396C340.339 201.553 340.31 203.219 340.331 204.885C340.364 207.408 339.043 208.511 336.624 208.512C336.291 208.512 335.958 208.55 335.625 208.546C317.28 208.35 321.108 210.669 320.73 194.542C320.57 187.714 320.965 180.862 320.562 174.054C319.993 164.448 312.476 159.462 304.528 163.031C299.744 165.179 298.373 169.316 298.334 174.077C298.256 183.74 298.139 193.408 298.351 203.066C298.442 207.259 296.812 208.787 292.778 208.558C289.457 208.37 286.114 208.446 282.785 208.549C279.349 208.655 278.055 207.023 278.062 203.695C278.113 179.37 278.14 155.044 278.044 130.718C278.028 126.769 279.682 125.475 283.446 125.529C301.242 125.784 297.934 123.532 298.292 139.746C298.373 143.398 298.304 147.054 298.304 150.725C300.545 151.418 301.516 149.675 302.793 148.904C320.014 138.507 339.946 149.328 340.312 169.415C340.491 179.242 340.344 189.074 340.345 199.396Z" fill="#19315C"/>
<path d="M157.225 147.902C157.346 166.682 157.29 185.008 157.453 203.333C157.488 207.222 156.139 208.841 152.25 208.597C149.429 208.42 146.583 208.475 143.756 208.608C139.723 208.798 136.447 208.292 137.682 202.902C135.612 202.673 134.666 204.014 133.504 204.767C120.158 213.42 103.075 209.153 95.8733 195.096C90.1399 183.905 90.0311 172.323 94.8429 160.804C101.437 145.018 122.459 139.057 137.509 152.339C136.62 146.481 139.574 145.247 144.319 145.777C148.601 146.255 153.234 143.925 157.225 147.902ZM136.397 170.816C132.665 163.594 126.706 160.893 120.084 163.423C113.546 165.921 110.454 173.573 112.579 181.995C114.224 188.512 120.071 192.227 127.039 191.18C135.09 189.971 139.234 181.493 136.397 170.816Z" fill="#19315C"/>
<path d="M72.7496 106.487C76.4908 102.171 80.6652 100.367 85.8929 102.464C90.3514 104.253 92.9959 108.732 92.9165 114.112C92.6055 135.209 76.9749 154.957 56.7752 159.774C30.8168 165.963 4.22603 147.305 0.801634 120.437C0.343901 116.846 -0.649385 113.272 0.626799 109.573C2.3063 104.705 6.55032 101.43 11.4908 101.55C16.2723 101.667 20.4227 105.341 21.549 110.403C22.4474 114.442 22.2746 118.614 23.9315 122.595C28.6046 133.823 38.8285 140.534 49.671 139.057C60.4317 137.591 69.7246 127.235 70.7324 115.492C70.9881 112.513 70.828 109.476 72.7496 106.487Z" fill="#F15A2B"/>
<path d="M158.926 68.8703C160.631 73.1371 161.417 77.1714 161.39 81.3992C161.346 88.1735 161.075 88.5516 154.46 88.5777C144.472 88.6172 134.485 88.5719 124.498 88.6516C122.779 88.6653 120.472 87.898 119.619 90.0774C118.802 92.166 120.272 93.9345 121.598 95.4307C125.267 99.5703 132.254 100.579 135.952 96.6746C139.19 93.2566 142.703 93.0197 146.733 93.1351C150.392 93.2399 154.055 93.1989 157.715 93.2729C158.174 93.2822 158.627 93.6009 159.058 93.7668C159.011 104.086 147.36 113.808 133.065 115.529C117.897 117.355 103.182 107.345 99.765 92.8739C95.4819 74.7359 103.126 58.3476 118.466 53.0374C131.791 48.4249 151.469 51.5855 158.926 68.8703ZM134.369 68.2887C125.557 66.5969 120.926 69.0244 119.57 76.2617C126.553 76.2617 133.48 76.2617 140.528 76.2617C140.385 71.9548 138.029 70.0529 134.369 68.2887Z" fill="#19315C"/>
<path d="M220.013 54.2039C228.466 58.8854 231.882 66.3656 232.223 75.0695C232.68 86.711 232.256 98.3848 232.386 110.043C232.425 113.522 231.049 114.786 227.662 114.722C209.288 114.376 213.087 117.151 212.674 100.317C212.514 93.8251 212.81 87.3196 212.574 80.8318C212.282 72.7686 208.531 68.7324 201.71 68.6028C194.79 68.4713 190.513 72.3825 190.333 79.6331C190.089 89.4547 190.097 99.2876 190.251 109.112C190.314 113.106 189.058 115.021 184.824 114.733C181.342 114.496 177.83 114.597 174.335 114.677C171.372 114.745 170.066 113.33 170.069 110.467C170.083 92.3119 170.088 74.157 170.102 56.0021C170.104 53.3595 171.314 52.0466 174.089 52.134C177.25 52.2336 180.417 52.1259 183.582 52.1121C187.155 52.0965 191.223 51.347 190.159 58.0938C199.993 51.0068 209.487 49.2252 220.013 54.2039Z" fill="#19315C"/>
<path d="M368.065 147.061C378.907 145.241 389.404 146.171 399.86 146.361C404.281 146.441 407.31 150.539 407.348 154.923C407.388 159.541 404.537 163.402 399.686 163.918C394.084 164.513 388.394 164.289 382.742 164.398C380.245 164.446 377.739 164.311 375.253 164.483C368.205 164.972 363.8 169.21 362.66 176.433C361.796 181.913 365.953 188.397 371.687 190.512C377.354 192.602 383.966 190.377 387.434 185.058C388.422 183.543 389.024 181.775 389.79 180.118C392.056 175.215 396.586 173.172 401.218 174.973C405.879 176.785 408.085 181.315 406.745 186.322C403.098 199.945 389.461 210.08 375.403 209.617C360.558 209.129 348.095 198.568 345.009 183.863C342.052 169.771 349.576 155.087 362.978 148.881C364.481 148.186 366.09 147.721 368.065 147.061Z" fill="#19315C"/>
<path d="M170.029 137.494C170.161 124.41 168.54 125.612 181.576 125.527C182.907 125.518 184.24 125.593 185.57 125.557C188.943 125.465 190.287 127.063 190.249 130.435C190.139 140.088 190.215 149.744 190.218 159.399C190.222 173.714 190.114 188.031 190.297 202.344C190.353 206.712 189.131 208.732 184.386 208.621C167.499 208.224 170.186 210.774 170.046 194.417C169.885 175.608 170.022 156.797 170.029 137.494Z" fill="#19315C"/>
<path d="M107.958 3.43473C115.626 7.13599 122.949 10.6882 130.27 14.2444C132.059 15.1137 134.04 15.8281 134.282 18.225C134.553 20.9106 132.516 21.9919 130.671 23.0917C121.684 28.4505 112.681 33.784 103.65 39.0684C102.135 39.9547 100.424 41.392 98.6735 39.7703C96.8797 38.1083 98.3387 36.3501 99.113 34.7907C103.977 24.9946 103.937 15.3186 98.6636 5.67639C97.8365 4.1641 96.2227 2.45142 98.0302 0.74628C99.6716 -0.802029 101.456 0.420505 103.101 1.17594C104.61 1.86864 106.109 2.58258 107.958 3.43473Z" fill="#F89820"/>
<path d="M421.459 188.525C428.132 186.227 433.122 188.195 434.858 193.475C436.382 198.108 433.62 203.197 428.655 204.915C424.133 206.48 420.824 204.666 418.448 200.953C415.67 196.613 416.581 192.865 421.459 188.525Z" fill="#F15A2B"/>
</svg>
