<svg xmlns="http://www.w3.org/2000/svg" version="1.1" xmlns:xlink="http://www.w3.org/1999/xlink" xmlns:svgjs="http://svgjs.dev/svgjs" width="100%" height="100%" viewBox="0 0 1000 600"><rect width="1000" height="600" x="0" y="0" fill="#FFFFF"/><g><rect width="333.3333333333333" height="333.3333333333333" rx="13.333333333333334" ry="13.333333333333334" y="232.66021242177465" fill="#f6b042" transform="matrix(0.5939991159623699,0,0,0.59399911596237,0,62.800177319913374)" x="210.4379119873047"/><path d="M350.42403115849544 474.32687451480507L324.2018089362732 474.32687451480507L355.8129200473843 326.1324300703606L397.61847560293984 324.32687451480507L430.00736449182875 473.1324300703606L398.00736449182875 474.32687451480507L392.61847560293984 442.1324300703606L356.8129200473843 442.1324300703606L350.42403115849544 474.32687451480507ZM373.4240311584954 346.32687451480507L362.2018089362732 418.1324300703606L387.2018089362732 418.1324300703606L373.4240311584954 346.32687451480507Z " fill="#533549" transform="matrix(0.5939991159623699,0,0,0.59399911596237,0,62.800177319913374)"/><path d="M651.594383612012 471.8882716902401L627.1045875643867 471.8882716902401L656.6272442404435 333.48460440837493L695.6708279816257 331.7983366720448L725.9198769133324 470.77274072620634L696.0340241094507 471.8882716902401L691.0011634810191 441.82082082244597L657.5611771405647 441.82082082244597L651.594383612012 471.8882716902401ZM673.0748403148019 352.3448604747134L662.5940377689963 419.4064312195347L685.9423602720287 419.4064312195347L673.0748403148019 352.3448604747134ZM818.5608320892537 466.4662723534248L795.4200502306926 474.3268742627791L774.1211915918151 422.0266318559862L765.5341974268109 433.41542472135427L765.5341974268109 471.8882716902401L739.3840762234145 471.8882716902401L739.3840762234145 335.170872144705L765.5341974268109 331.7983366720448L765.5341974268109 401.2725674088461L792.2291128219448 366.7170501043579L820.6362385339677 366.7170501043579L791.113581857911 404.6451028815064L818.5608320892537 466.4662723534248ZM832.7773662355446 473.0038026542739L832.7773662355446 335.170872144705L858.9274874389412 331.7983366720448L858.9274874389412 380.18124941444Q874.9859448049158 365.41992107641164 888.9949383067353 365.41992107641164L888.9949383067353 365.41992107641164Q898.8790614996858 365.41992107641164 905.1571659949457 372.6060158912339Q911.4093279096465 379.7921107060561 911.4093279096465 391.93323840763304L911.4093279096465 391.93323840763304L911.4093279096465 470.77274072620634L885.2592067062501 473.0038026542739L885.2592067062501 401.4801080533175Q885.2592067062501 394.55343904408454 882.7427763920343 391.20684615198314Q880.2004034972597 387.8343106793229 876.1014757689495 387.8343106793229L876.1014757689495 387.8343106793229Q872.7289402962892 387.8343106793229 868.993208695804 389.52057841565306Q865.2574770953188 391.20684615198314 858.9274874389412 394.94257775246837L858.9274874389412 394.94257775246837L858.9274874389412 470.77274072620634L832.7773662355446 473.0038026542739ZM959.7922406520418 352.16326241080094L933.6421194486453 353.2787933748347L933.6421194486453 326.19473927131696L959.7922406520418 324.32687347107435L959.7922406520418 352.16326241080094ZM959.5847000075704 470.77274072620634L933.434578804174 473.0038026542739L933.434578804174 368.9740546129844L959.5847000075704 366.7170501043579L959.5847000075704 470.77274072620634ZM1008.901545650087 470.77274072620634L982.7514244466904 473.0038026542739L982.7514244466904 335.170872144705L1008.901545650087 331.7983366720448L1008.901545650087 470.77274072620634ZM1065.1191177212775 474.3268742627791Q1046.4404597188516 474.3268742627791 1036.556336525901 459.46177560251505Q1026.6462707523917 444.6226195228099 1026.6462707523917 419.95122541127216L1026.6462707523917 419.95122541127216Q1026.6462707523917 394.94257775246837 1036.7379345898134 380.18124941444Q1046.8295984272354 365.41992107641164 1066.0530506213988 365.41992107641164L1066.0530506213988 365.41992107641164Q1084.368512496 365.41992107641164 1094.071037625038 380.18124941444Q1103.799505334635 394.94257775246837 1103.799505334635 419.95122541127216L1103.799505334635 419.95122541127216Q1103.799505334635 421.45589508368977 1103.2287685623385 422.1044595976629Q1102.683974370601 422.7530241116361 1102.683974370601 422.96056475610743L1102.683974370601 422.96056475610743L1052.796391955788 422.96056475610743Q1052.796391955788 435.10169245768435 1055.987329364536 445.08958597287057Q1059.1523241927248 455.07747948805667 1065.6898544935739 455.07747948805667L1065.6898544935739 455.07747948805667Q1072.9797196306317 455.07747948805667 1076.5338531672046 446.67208338696497Q1080.0620441232184 438.2666872858733 1080.2695847676898 437.9034911580483L1080.2695847676898 437.9034911580483L1100.0637737341497 445.3749543590187Q1096.1464440697519 458.8132110885419 1087.5335073241888 466.5700426756605Q1078.9465131591846 474.3268742627791 1065.1191177212775 474.3268742627791L1065.1191177212775 474.3268742627791ZM1052.796391955788 407.8100977096952L1078.0125802590633 407.8100977096952Q1078.0125802590633 396.60290290823957 1075.029183494787 390.0653726073905Q1072.0457867305106 383.52784230654134 1065.6898544935739 383.52784230654134L1065.6898544935739 383.52784230654134Q1062.524859665385 383.52784230654134 1059.5155203205497 386.71877971528914Q1056.5321235562733 389.883774543478 1054.6642577560308 395.4873719442058Q1052.796391955788 401.0909693449336 1052.796391955788 407.8100977096952L1052.796391955788 407.8100977096952ZM1151.0409445324374 474.3268742627791Q1135.5532239387592 474.3268742627791 1126.0322968736336 467.3223775118693Q1116.4854272279492 460.31788076095955 1113.6836285275854 447.78761435099875L1113.6836285275854 447.78761435099875L1134.0485542663414 441.06848598623714Q1134.8008891025504 444.6226195228099 1136.8503529667055 447.4244182231738L1136.8503529667055 447.4244182231738Q1141.156821339487 453.572809815639 1149.3806193766663 453.572809815639L1149.3806193766663 453.572809815639Q1154.0502838772727 453.572809815639 1158.3308096694955 451.5233459514839Q1162.6372780422769 449.4738820873289 1162.6372780422769 445.1674137145473L1162.6372780422769 445.1674137145473Q1162.6372780422769 439.382218249907 1154.59507806901 436.2172234217182L1154.59507806901 436.2172234217182L1132.5698271744827 427.2410905483301Q1123.775292365007 423.50535894784485 1119.1056278644005 416.03389574687446Q1114.4359633637941 408.5624325459041 1114.4359633637941 397.7443764528323L1114.4359633637941 397.7443764528323Q1114.4359633637941 387.65271261541045 1119.3909962505488 380.3628474783525Q1124.3460291373035 373.07298234129456 1132.466056852247 369.25942299913254Q1140.5860845671905 365.41992107641164 1149.9254135684037 365.41992107641164L1149.9254135684037 365.41992107641164Q1161.7033451421557 365.41992107641164 1171.587468335106 372.24281976340893Q1181.4975341086154 379.0657184504062 1184.8700695812756 390.8177074435993L1184.8700695812756 390.8177074435993L1163.1820722340144 397.5368358083609Q1162.4556799783645 394.37184098017207 1160.5878141781218 391.20684615198314L1160.5878141781218 391.20684615198314Q1156.4629438692527 384.85091391504653 1150.1070116323162 384.85091391504653L1150.1070116323162 384.85091391504653Q1145.4373471317094 384.85091391504653 1142.0907542396083 387.0041481014373Q1138.7182187669478 389.1314397072692 1138.7182187669478 393.25631001613823L1138.7182187669478 393.25631001613823Q1138.7182187669478 398.10757258065723 1147.8759497042486 402.2065003089674L1147.8759497042486 402.2065003089674L1166.5546077066747 409.8855041544092Q1176.464673480184 414.55516865501573 1182.0682708809118 421.63749314760224Q1187.6718682816395 428.74576022074774 1187.6718682816395 440.7052898584122L1187.6718682816395 440.7052898584122Q1187.6718682816395 451.5233459514839 1182.4314670087365 459.0985794746901Q1177.191065735834 466.6478704173373 1168.7856696347421 470.4873723400582Q1160.3802735336503 474.3268742627791 1151.0409445324374 474.3268742627791L1151.0409445324374 474.3268742627791ZM1238.8306371438398 471.8882716902401L1217.3501804410498 471.8882716902401L1195.8697237382598 368.7924565490719L1222.5905817139528 366.7170501043579L1231.5667145873408 426.3071576482088L1244.8233732529516 368.9740546129844L1266.6670260835663 366.7170501043579L1278.0558189489345 425.55482281199994L1289.4705543948617 368.9740546129844L1310.7434704531802 367.8585236489506L1286.6687556944976 471.8882716902401L1265.5514951195328 471.8882716902401L1253.591965481868 403.71116998138507L1238.8306371438398 471.8882716902401ZM1341.0184619654456 474.3268742627791Q1334.299333600684 474.3268742627791 1328.8773342638688 470.12417621223324Q1323.4553349270532 465.9214781616874 1320.471938162777 458.70944076630616Q1317.4885413985007 451.5233459514839 1317.4885413985007 442.5731556586548L1317.4885413985007 442.5731556586548Q1317.4885413985007 422.20822991989866 1331.3937645780843 413.8806615604837Q1345.2989877576683 405.5790357816277 1363.7960476961819 404.4635048175939L1363.7960476961819 404.4635048175939Q1363.7960476961819 394.37184098017207 1362.4989186682355 389.52057841565306Q1361.1758470597306 384.66931585113406 1356.142986431299 384.66931585113406L1356.142986431299 384.66931585113406Q1351.8365180585174 384.66931585113406 1349.60545613045 388.0159087432354Q1347.3743942023823 391.3884442158956 1346.8036574300859 396.60290290823957L1346.8036574300859 396.60290290823957L1321.224272998986 392.1407790521045Q1323.0921387992285 377.74264684190103 1332.976261992179 371.59425524943583Q1342.8863277656883 365.41992107641164 1356.142986431299 365.41992107641164L1356.142986431299 365.41992107641164Q1373.1353766973948 365.41992107641164 1381.6445431207221 374.39605394979975Q1390.127766963491 383.34624424262887 1390.127766963491 397.7443764528323L1390.127766963491 397.7443764528323L1390.127766963491 452.09408272378033Q1390.127766963491 460.862674952697 1392.9295656638546 470.77274072620634L1392.9295656638546 470.77274072620634L1367.3501812327545 473.0038026542739L1364.3667844684783 460.11034011648815Q1360.994248995818 466.10307622559986 1354.456718694969 470.20200395391004Q1347.9191883941196 474.3268742627791 1341.0184619654456 474.3268742627791L1341.0184619654456 474.3268742627791ZM1353.1595896670228 455.648216260353Q1356.3245844952114 455.648216260353 1358.477818681602 454.14354658793536Q1360.631052867993 452.63887691551776 1363.7960476961819 449.2922840234164L1363.7960476961819 449.2922840234164L1363.7960476961819 420.15876605574357Q1354.456718694969 420.15876605574357 1348.853121294241 425.191626684175Q1343.2495238935132 430.22448731260647 1343.2495238935132 440.88688792232466L1343.2495238935132 440.88688792232466Q1343.2495238935132 447.9692124149112 1345.765954207729 451.8087143376321Q1348.3083271025037 455.648216260353 1353.1595896670228 455.648216260353L1353.1595896670228 455.648216260353ZM1411.815764310752 473.0038026542739L1411.815764310752 368.9740546129844L1437.9658855141488 366.7170501043579L1437.9658855141488 383.73538295101275Q1443.5694829148765 375.693182977746 1451.8711086937324 370.73815009099127Q1460.1727344725884 365.7831172042366 1473.0661970103743 365.7831172042366L1473.0661970103743 365.7831172042366L1473.0661970103743 391.3884442158956Q1466.3470686456126 391.3884442158956 1455.4252422303052 393.7232764661989Q1444.5034158149979 396.05810871650215 1437.9658855141488 401.84330418114246L1437.9658855141488 401.84330418114246L1437.9658855141488 470.77274072620634L1411.815764310752 473.0038026542739Z " fill="#ffffff" transform="matrix(0.5939991159623699,0,0,0.59399911596237,0,62.800177319913374)"/></g></svg>